<mxfile host="app.diagrams.net" modified="2022-01-20T11:45:56.404Z" agent="5.0 (Windows NT 10.0; Win64; x64) AppleWebKit/537.36 (KHTML, like Gecko) Chrome/97.0.4692.71 Safari/537.36" etag="JQpGQWY42_o2M2XBw2c8" version="16.2.7" type="github" pages="2">
  <diagram id="ROzpph2KXOq2R1gUpp3e" name="Page-1">
    <mxGraphModel dx="1022" dy="436" grid="1" gridSize="10" guides="1" tooltips="1" connect="1" arrows="1" fold="1" page="1" pageScale="1" pageWidth="827" pageHeight="1169" math="0" shadow="0">
      <root>
        <mxCell id="0" />
        <mxCell id="1" parent="0" />
        <mxCell id="HmklrOqMnrzbJ7BfiBBN-1" value="" style="rounded=1;whiteSpace=wrap;html=1;" vertex="1" parent="1">
          <mxGeometry x="510" y="210" width="270" height="130" as="geometry" />
        </mxCell>
        <mxCell id="HmklrOqMnrzbJ7BfiBBN-3" value="VPC&lt;br&gt;Cluster&lt;br&gt;Subnet&lt;br&gt;Security Group" style="text;html=1;strokeColor=none;fillColor=none;align=left;verticalAlign=middle;whiteSpace=wrap;rounded=0;" vertex="1" parent="1">
          <mxGeometry x="540" y="240" width="150" height="30" as="geometry" />
        </mxCell>
        <mxCell id="HmklrOqMnrzbJ7BfiBBN-4" value="" style="rounded=1;whiteSpace=wrap;html=1;" vertex="1" parent="1">
          <mxGeometry x="60" y="210" width="270" height="130" as="geometry" />
        </mxCell>
        <mxCell id="HmklrOqMnrzbJ7BfiBBN-5" value="Module&lt;br&gt;&lt;span style=&quot;white-space: pre&quot;&gt;	&lt;/span&gt;VPC&lt;br&gt;&lt;span style=&quot;white-space: pre&quot;&gt;	&lt;/span&gt;Subnets&lt;br&gt;&lt;span style=&quot;white-space: pre&quot;&gt;	&lt;/span&gt;Security Groups&lt;br&gt;&lt;span style=&quot;white-space: pre&quot;&gt;	&lt;/span&gt;Nat Gateway&lt;br&gt;&lt;span style=&quot;white-space: pre&quot;&gt;	&lt;/span&gt;Internet Gateway" style="text;html=1;strokeColor=none;fillColor=none;align=left;verticalAlign=middle;whiteSpace=wrap;rounded=0;" vertex="1" parent="1">
          <mxGeometry x="80" y="250" width="170" height="30" as="geometry" />
        </mxCell>
        <mxCell id="HmklrOqMnrzbJ7BfiBBN-7" value="Method#1" style="text;html=1;strokeColor=none;fillColor=none;align=center;verticalAlign=middle;whiteSpace=wrap;rounded=0;" vertex="1" parent="1">
          <mxGeometry x="70" y="180" width="60" height="30" as="geometry" />
        </mxCell>
        <mxCell id="HmklrOqMnrzbJ7BfiBBN-8" value="Method#2" style="text;html=1;strokeColor=none;fillColor=none;align=center;verticalAlign=middle;whiteSpace=wrap;rounded=0;" vertex="1" parent="1">
          <mxGeometry x="520" y="180" width="60" height="30" as="geometry" />
        </mxCell>
        <mxCell id="HmklrOqMnrzbJ7BfiBBN-11" value="Requirements#&lt;br&gt;1&amp;gt; VPC , Subnets&lt;br&gt;2&amp;gt; Kubernetes Cluster" style="text;html=1;strokeColor=none;fillColor=none;align=left;verticalAlign=middle;whiteSpace=wrap;rounded=0;" vertex="1" parent="1">
          <mxGeometry x="70" y="20" width="370" height="80" as="geometry" />
        </mxCell>
        <mxCell id="HmklrOqMnrzbJ7BfiBBN-12" value="" style="rounded=1;whiteSpace=wrap;html=1;" vertex="1" parent="1">
          <mxGeometry x="100" y="480" width="540" height="260" as="geometry" />
        </mxCell>
        <mxCell id="HmklrOqMnrzbJ7BfiBBN-13" value="" style="rounded=1;whiteSpace=wrap;html=1;" vertex="1" parent="1">
          <mxGeometry x="370" y="525" width="180" height="145" as="geometry" />
        </mxCell>
        <mxCell id="HmklrOqMnrzbJ7BfiBBN-14" value="Private ip" style="rounded=0;whiteSpace=wrap;html=1;" vertex="1" parent="1">
          <mxGeometry x="400" y="560" width="190" height="110" as="geometry" />
        </mxCell>
        <mxCell id="HmklrOqMnrzbJ7BfiBBN-27" style="edgeStyle=orthogonalEdgeStyle;rounded=0;orthogonalLoop=1;jettySize=auto;html=1;fillColor=#FF3333;" edge="1" parent="1" source="HmklrOqMnrzbJ7BfiBBN-15" target="HmklrOqMnrzbJ7BfiBBN-17">
          <mxGeometry relative="1" as="geometry" />
        </mxCell>
        <mxCell id="HmklrOqMnrzbJ7BfiBBN-28" style="edgeStyle=orthogonalEdgeStyle;rounded=0;orthogonalLoop=1;jettySize=auto;html=1;fillColor=#FF3333;" edge="1" parent="1" source="HmklrOqMnrzbJ7BfiBBN-15" target="HmklrOqMnrzbJ7BfiBBN-16">
          <mxGeometry relative="1" as="geometry" />
        </mxCell>
        <mxCell id="HmklrOqMnrzbJ7BfiBBN-15" value="Provionser VM" style="rounded=0;whiteSpace=wrap;html=1;" vertex="1" parent="1">
          <mxGeometry x="135" y="525" width="60" height="50" as="geometry" />
        </mxCell>
        <mxCell id="HmklrOqMnrzbJ7BfiBBN-16" value="PUblic" style="sketch=0;pointerEvents=1;shadow=0;dashed=0;html=1;strokeColor=none;fillColor=#505050;labelPosition=center;verticalLabelPosition=bottom;verticalAlign=top;outlineConnect=0;align=center;shape=mxgraph.office.devices.nic;" vertex="1" parent="1">
          <mxGeometry x="100" y="440" width="57" height="38" as="geometry" />
        </mxCell>
        <mxCell id="HmklrOqMnrzbJ7BfiBBN-17" value="" style="sketch=0;pointerEvents=1;shadow=0;dashed=0;html=1;strokeColor=none;fillColor=#505050;labelPosition=center;verticalLabelPosition=bottom;verticalAlign=top;outlineConnect=0;align=center;shape=mxgraph.office.devices.nic;" vertex="1" parent="1">
          <mxGeometry x="330" y="560" width="57" height="38" as="geometry" />
        </mxCell>
        <mxCell id="HmklrOqMnrzbJ7BfiBBN-18" value="Name Resolution to Private ip" style="rounded=1;whiteSpace=wrap;html=1;" vertex="1" parent="1">
          <mxGeometry x="120" y="620" width="120" height="60" as="geometry" />
        </mxCell>
        <mxCell id="HmklrOqMnrzbJ7BfiBBN-19" value="" style="shape=flexArrow;endArrow=classic;html=1;rounded=0;fillColor=#FF6666;" edge="1" parent="1">
          <mxGeometry width="50" height="50" relative="1" as="geometry">
            <mxPoint x="20" y="560" as="sourcePoint" />
            <mxPoint x="70" y="560" as="targetPoint" />
          </mxGeometry>
        </mxCell>
        <mxCell id="HmklrOqMnrzbJ7BfiBBN-20" value="" style="shape=flexArrow;endArrow=classic;html=1;rounded=0;fillColor=#FF3333;" edge="1" parent="1">
          <mxGeometry width="50" height="50" relative="1" as="geometry">
            <mxPoint x="20" y="649.5" as="sourcePoint" />
            <mxPoint x="70" y="649.5" as="targetPoint" />
          </mxGeometry>
        </mxCell>
        <mxCell id="HmklrOqMnrzbJ7BfiBBN-21" value="" style="rounded=1;whiteSpace=wrap;html=1;" vertex="1" parent="1">
          <mxGeometry x="100" y="900" width="550" height="240" as="geometry" />
        </mxCell>
        <mxCell id="HmklrOqMnrzbJ7BfiBBN-22" value="" style="sketch=0;html=1;dashed=0;whitespace=wrap;fillColor=#2875E2;strokeColor=#ffffff;points=[[0.005,0.63,0],[0.1,0.2,0],[0.9,0.2,0],[0.5,0,0],[0.995,0.63,0],[0.72,0.99,0],[0.5,1,0],[0.28,0.99,0]];shape=mxgraph.kubernetes.icon;prIcon=job" vertex="1" parent="1">
          <mxGeometry x="340" y="1030" width="50" height="48" as="geometry" />
        </mxCell>
        <mxCell id="HmklrOqMnrzbJ7BfiBBN-24" style="edgeStyle=orthogonalEdgeStyle;rounded=0;orthogonalLoop=1;jettySize=auto;html=1;entryX=0.5;entryY=0;entryDx=0;entryDy=0;entryPerimeter=0;" edge="1" parent="1" source="HmklrOqMnrzbJ7BfiBBN-23" target="HmklrOqMnrzbJ7BfiBBN-22">
          <mxGeometry relative="1" as="geometry" />
        </mxCell>
        <mxCell id="HmklrOqMnrzbJ7BfiBBN-23" value="" style="outlineConnect=0;dashed=0;verticalLabelPosition=bottom;verticalAlign=top;align=center;html=1;shape=mxgraph.aws3.customer_gateway;fillColor=#F58536;gradientColor=none;" vertex="1" parent="1">
          <mxGeometry x="330" y="860" width="69" height="72" as="geometry" />
        </mxCell>
        <mxCell id="HmklrOqMnrzbJ7BfiBBN-25" value="" style="shape=flexArrow;endArrow=classic;html=1;rounded=0;fillColor=#FF3333;" edge="1" parent="1">
          <mxGeometry width="50" height="50" relative="1" as="geometry">
            <mxPoint x="40" y="990" as="sourcePoint" />
            <mxPoint x="90" y="990" as="targetPoint" />
          </mxGeometry>
        </mxCell>
        <mxCell id="HmklrOqMnrzbJ7BfiBBN-26" value="1 Script&lt;br&gt;Interway/Nat.tf&lt;br&gt;Kops.tf" style="rounded=1;whiteSpace=wrap;html=1;" vertex="1" parent="1">
          <mxGeometry x="510" y="360" width="120" height="60" as="geometry" />
        </mxCell>
        <mxCell id="HmklrOqMnrzbJ7BfiBBN-29" value="1&amp;gt; EC2 linux Jump Box&lt;br&gt;2&amp;gt; Test the connectivity&lt;br&gt;3&amp;gt; Name Resolution:&lt;br&gt;" style="text;html=1;strokeColor=none;fillColor=none;align=center;verticalAlign=middle;whiteSpace=wrap;rounded=0;" vertex="1" parent="1">
          <mxGeometry x="680" y="500" width="130" height="30" as="geometry" />
        </mxCell>
        <mxCell id="HmklrOqMnrzbJ7BfiBBN-30" value="VM" style="rounded=0;whiteSpace=wrap;html=1;" vertex="1" parent="1">
          <mxGeometry x="410" y="575" width="60" height="50" as="geometry" />
        </mxCell>
        <mxCell id="4DL7-vcwtKUO8cYhg1fy-1" value="Private" style="text;html=1;strokeColor=none;fillColor=none;align=center;verticalAlign=middle;whiteSpace=wrap;rounded=0;" vertex="1" parent="1">
          <mxGeometry x="100" y="310" width="60" height="30" as="geometry" />
        </mxCell>
        <mxCell id="4DL7-vcwtKUO8cYhg1fy-2" value="Public" style="text;html=1;strokeColor=none;fillColor=none;align=center;verticalAlign=middle;whiteSpace=wrap;rounded=0;" vertex="1" parent="1">
          <mxGeometry x="520" y="300" width="60" height="30" as="geometry" />
        </mxCell>
      </root>
    </mxGraphModel>
  </diagram>
  <diagram id="aaqp5b5xJrrrLayYQ4zw" name="Page-2">
    <mxGraphModel dx="1022" dy="436" grid="1" gridSize="10" guides="1" tooltips="1" connect="1" arrows="1" fold="1" page="1" pageScale="1" pageWidth="827" pageHeight="1169" math="0" shadow="0">
      <root>
        <mxCell id="gGzM584KNA4ZTBeTobhw-0" />
        <mxCell id="gGzM584KNA4ZTBeTobhw-1" parent="gGzM584KNA4ZTBeTobhw-0" />
        <mxCell id="gGzM584KNA4ZTBeTobhw-9" style="edgeStyle=orthogonalEdgeStyle;rounded=0;orthogonalLoop=1;jettySize=auto;html=1;entryX=0;entryY=0.75;entryDx=0;entryDy=0;fillColor=#FF3333;" edge="1" parent="gGzM584KNA4ZTBeTobhw-1" source="gGzM584KNA4ZTBeTobhw-2" target="gGzM584KNA4ZTBeTobhw-8">
          <mxGeometry relative="1" as="geometry">
            <Array as="points">
              <mxPoint x="330" y="185" />
              <mxPoint x="390" y="185" />
              <mxPoint x="390" y="125" />
            </Array>
          </mxGeometry>
        </mxCell>
        <mxCell id="gGzM584KNA4ZTBeTobhw-2" value="" style="rounded=0;whiteSpace=wrap;html=1;" vertex="1" parent="gGzM584KNA4ZTBeTobhw-1">
          <mxGeometry x="270" y="230" width="120" height="60" as="geometry" />
        </mxCell>
        <mxCell id="gGzM584KNA4ZTBeTobhw-4" style="edgeStyle=orthogonalEdgeStyle;rounded=0;orthogonalLoop=1;jettySize=auto;html=1;entryX=0;entryY=0.5;entryDx=0;entryDy=0;fillColor=#FF3333;" edge="1" parent="gGzM584KNA4ZTBeTobhw-1" source="gGzM584KNA4ZTBeTobhw-3" target="gGzM584KNA4ZTBeTobhw-2">
          <mxGeometry relative="1" as="geometry" />
        </mxCell>
        <mxCell id="gGzM584KNA4ZTBeTobhw-3" value="Actor" style="shape=umlActor;verticalLabelPosition=bottom;verticalAlign=top;html=1;outlineConnect=0;" vertex="1" parent="gGzM584KNA4ZTBeTobhw-1">
          <mxGeometry x="90" y="230" width="30" height="60" as="geometry" />
        </mxCell>
        <mxCell id="gGzM584KNA4ZTBeTobhw-5" value="Google.com" style="text;html=1;strokeColor=none;fillColor=none;align=center;verticalAlign=middle;whiteSpace=wrap;rounded=0;" vertex="1" parent="gGzM584KNA4ZTBeTobhw-1">
          <mxGeometry x="414" y="230" width="60" height="30" as="geometry" />
        </mxCell>
        <mxCell id="gGzM584KNA4ZTBeTobhw-6" value="Google.com&lt;br&gt;1.1.1.1" style="rounded=0;whiteSpace=wrap;html=1;" vertex="1" parent="gGzM584KNA4ZTBeTobhw-1">
          <mxGeometry x="600" y="110" width="120" height="60" as="geometry" />
        </mxCell>
        <mxCell id="gGzM584KNA4ZTBeTobhw-7" value="MS.com&lt;br&gt;2.2.2.2" style="rounded=0;whiteSpace=wrap;html=1;" vertex="1" parent="gGzM584KNA4ZTBeTobhw-1">
          <mxGeometry x="600" y="350" width="120" height="60" as="geometry" />
        </mxCell>
        <mxCell id="gGzM584KNA4ZTBeTobhw-8" value="DNS&lt;br&gt;Route 53" style="rounded=1;whiteSpace=wrap;html=1;" vertex="1" parent="gGzM584KNA4ZTBeTobhw-1">
          <mxGeometry x="410" y="80" width="120" height="60" as="geometry" />
        </mxCell>
        <mxCell id="nqzf3gaYAyJrrW7Q3Cdt-0" value="Private ip&lt;br&gt;10.10.10.10" style="rounded=1;whiteSpace=wrap;html=1;" vertex="1" parent="gGzM584KNA4ZTBeTobhw-1">
          <mxGeometry x="690" y="190" width="120" height="60" as="geometry" />
        </mxCell>
      </root>
    </mxGraphModel>
  </diagram>
</mxfile>
